<?xml version="1.0" encoding="utf-8"?>
<!-- Generator: Adobe Illustrator 22.0.1, SVG Export Plug-In . SVG Version: 6.00 Build 0)  -->
<svg version="1.1" id="图层_1" xmlns="http://www.w3.org/2000/svg" xmlns:xlink="http://www.w3.org/1999/xlink" x="0px" y="0px"
	 viewBox="0 0 225 225" style="enable-background:new 0 0 225 225;" xml:space="preserve">
<style type="text/css">
	.st0{fill:#ffffff;}
	.st1{fill:#CCCCCC;}
	.st2{fill:#9B9B9B;}
</style>
<rect id="Mask" class="st0" width="225" height="225"/>
<path id="Fill-1" class="st1" d="M149.9,66H76.1c-1.7,0-3.1,1.4-3.1,3v58.8c0,1.7,1.4,3,3.1,3h47.2c-0.6-0.4-1.1-0.9-1.6-1.4
	c-0.4-0.3-0.7-0.7-1.1-1.1c-0.1-0.1-0.3-0.3-0.4-0.4c-0.4-0.4-0.7-0.8-1.1-1.3c-0.1-0.1-0.1-0.1-0.2-0.2c-2.6-3.4-4.1-7.7-4.1-12.3
	c0-10.5,8-19.2,18.3-20.6c-2.5-3.4-5.5-5.7-9.2-5.7c-10.3,0-8.5,12.1-17.6,13.1c-9.1,1-10.6-17.8-17.2-19.5
	c-4.7-1.2-9.3,4.7-11.6,8.2V70.4h71.1v27c1.7,1.2,3.2,2.7,4.4,4.3V69C153,67.4,151.6,66,149.9,66z M138.2,117c0,1.3-0.9,2.4-2.2,2.4
	c-1.3,0-2.2-1.1-2.2-2.4l-0.6-12.1c0-1.3,1.5-2.4,2.9-2.4c1.3,0,2.9,1.1,2.9,2.4L138.2,117z M136,125.8c-1.3,0-2.4-1.1-2.4-2.4
	c0-1.3,1.1-2.4,2.4-2.4c1.3,0,2.4,1.1,2.4,2.4C138.4,124.7,137.4,125.8,136,125.8z M136,97.5c-9.4,0-17,7.5-17,16.6
	c0,9.2,7.6,16.6,17,16.6c9.4,0,17-7.5,17-16.6C153,105,145.4,97.5,136,97.5z"/>
<path id="图片加载失败" class="st2" d="M55.9,152.9l1.4,0.2c-0.2,0.4-0.4,0.8-0.6,1.2h5.8v1.1c-0.6,1.2-1.5,2.2-2.8,3.1
	c1.5,0.7,3.1,1.3,5,1.7l-0.8,1.2c-2.1-0.6-4-1.3-5.5-2.1c-1.7,0.9-3.8,1.6-6.3,2.2l-0.7-1.3c2.3-0.4,4.2-1,5.7-1.7
	c-0.9-0.6-1.6-1.2-2.2-1.8c-0.7,0.6-1.4,1.2-2.2,1.7l-0.9-1.1C53.8,156,55.2,154.6,55.9,152.9z M58.4,157.8c1.1-0.7,1.9-1.4,2.5-2.3
	h-5c-0.1,0.1-0.2,0.2-0.2,0.3C56.5,156.5,57.4,157.2,58.4,157.8z M54.1,163.7c2.9,0.6,5.7,1.3,8.4,2.4l-0.5,1.3
	c-2.7-1.1-5.6-1.9-8.5-2.4L54.1,163.7z M56.4,160.6c1.7,0.6,3.3,1.3,4.7,2.1l-0.7,1.1c-1.5-0.9-3.1-1.6-4.7-2.2L56.4,160.6z M67,151
	v19.2h-1.5v-0.9H50.6v0.9H49V151H67z M50.6,167.9h14.9v-15.5H50.6V167.9z M75.8,157.4v1.3c0,0.8-0.1,1.6-0.1,2.3h10.2v9.2h-1.6v-7.7
	h-8.8c-0.5,3.3-1.7,5.9-3.6,7.6l-1.2-1.1c2.3-2.2,3.5-5.7,3.5-10.4v-8.1h1.6v5.2h6.4V150h1.6v5.9h4.9v1.5H75.8z M111,153.3v16.6
	h-1.5v-1.5h-4.1v1.5h-1.5v-16.6H111z M105.4,166.9h4.1v-12.1h-4.1V166.9z M95.8,150.1h1.6v4.4h4.5c0,6.9-0.1,11.1-0.3,12.7
	c-0.2,1.8-1.3,2.7-3.2,2.7c-0.3,0-0.9,0-1.7-0.1l-0.4-1.5c0.7,0,1.3,0.1,1.8,0.1c1.1,0,1.8-0.6,2-1.9c0.1-1.1,0.2-4.7,0.3-10.6h-2.9
	c-0.1,6.5-1.5,11.2-4.4,14.2l-1.2-1c2.6-2.8,3.9-7.1,3.9-13.2h-3.5v-1.5h3.5V150.1z M115.5,151.8h4.3V150h1.5v1.8h4v1.5h-4v2h5.3
	c-0.1-1.6-0.1-3.4-0.1-5.4h1.5c0,2,0,3.8,0.1,5.4h5.5v1.4h-5.5c0.1,2,0.3,3.6,0.6,4.8c0.1,0.6,0.3,1.2,0.4,1.8
	c0.8-1.6,1.4-3.4,1.9-5.5l1.4,0.6c-0.7,2.8-1.6,5.1-2.7,6.9c0.2,0.5,0.4,0.9,0.6,1.3c0.6,1.1,1,1.6,1.4,1.6c0.4,0,0.7-1.2,0.9-3.5
	l1.4,0.7c-0.5,2.9-1.2,4.4-2.1,4.4c-0.7,0-1.6-0.7-2.4-2c-0.2-0.4-0.5-0.8-0.6-1.2c-1.1,1.5-2.4,2.6-3.9,3.4l-0.9-1.3
	c1.6-0.9,2.9-2.2,4.1-3.9c-0.3-1-0.6-2-0.8-3.2c-0.3-1.5-0.6-3.1-0.7-5.1h-12.3v-1.4h5.4v-2h-4.3V151.8z M130.2,150.2
	c1.1,1.2,2,2.3,2.6,3.2l-1.2,0.8c-0.6-1-1.5-2.1-2.6-3.3L130.2,150.2z M125.3,165.7v1.4c-1.1,0.1-2.2,0.3-3.4,0.4v2.6h-1.6v-2.4
	c-1.6,0.2-3.3,0.3-5,0.4l-0.2-1.5c1.8-0.1,3.6-0.2,5.2-0.4v-2H116l-0.3-1.3c0.6-0.7,1.2-1.6,1.7-2.8H115v-1.4h3
	c0.2-0.5,0.4-1.1,0.6-1.7l1.5,0.3c-0.2,0.5-0.4,0.9-0.5,1.4h5.8v1.4H119c-0.5,1-1,1.9-1.6,2.7h2.8v-1.7h1.6v1.7h3.3v1.3h-3.3v1.8
	C123.1,166,124.2,165.8,125.3,165.7z M140.5,150.5l1.5,0.6c-0.4,1-0.7,2-1.2,2.8h4.4V150h1.6v3.9h7.4v1.5h-7.4v1.4
	c0,1.1-0.1,2-0.3,3h9.1v1.5h-8.2c1.1,3.2,3.9,5.6,8.5,7.4l-0.9,1.4c-4.8-2.1-7.8-4.9-9-8.4c-0.4,1.5-1,2.7-1.8,3.8
	c-1.5,2-4,3.6-7.5,4.7l-0.9-1.3c3.4-1.1,5.9-2.6,7.2-4.4c0.6-0.9,1-1.9,1.4-3h-8.2v-1.5h8.5c0.2-0.9,0.3-1.9,0.3-3v-1.4h-5.3
	c-0.8,1.3-1.6,2.4-2.6,3.3l-1.3-1.2C138,155.8,139.5,153.4,140.5,150.5z M170.9,155c-0.1,0.2-0.2,0.5-0.2,0.7
	c0.3,2.9,1.1,5.5,2.4,7.7c1.1-2.3,1.8-5.1,1.9-8.4H170.9z M169.6,158c-0.4,0.8-0.9,1.5-1.4,2.1l-0.9-1.2c1.6-2.1,2.6-5.1,3.1-9
	l1.6,0.2c-0.2,1.2-0.4,2.3-0.6,3.3h6.4v1.5h-1.4c-0.1,3.9-0.9,7.1-2.4,9.8c1.1,1.5,2.5,2.9,4.2,4l-0.9,1.5c-1.7-1.1-3.1-2.5-4.2-4
	c-1.1,1.6-2.5,2.9-4.1,4l-0.9-1.4c1.7-1.1,3-2.4,4.1-4C171,162.9,170.1,160.6,169.6,158z M166.9,150.9v13.8h-1.5v-12.3h-5.2v12.3
	h-1.5v-13.8H166.9z M164.4,165.3c1.3,1.2,2.3,2.4,3.2,3.7l-1.2,1.1c-0.7-1.2-1.7-2.4-3-3.8L164.4,165.3z M162.2,154h1.4v6.7
	c0,2.6-0.4,4.6-1.1,6.1c-0.7,1.4-1.9,2.5-3.6,3.3l-0.9-1.4c1.5-0.7,2.6-1.8,3.3-3c0.6-1.3,0.9-3,0.9-5.1V154z"/>
</svg>
