<?xml version="1.0" encoding="utf-8"?>
<!-- Generator: Adobe Illustrator 22.0.1, SVG Export Plug-In . SVG Version: 6.00 Build 0)  -->
<svg version="1.1" id="图层_1" xmlns="http://www.w3.org/2000/svg" xmlns:xlink="http://www.w3.org/1999/xlink" x="0px" y="0px"
	 viewBox="0 0 750 280" style="enable-background:new 0 0 750 280;" xml:space="preserve">
<style type="text/css">
	.st0{filter:url(#Adobe_OpacityMaskFilter);}
	.st1{fill:#FFFFFF;}
	.st2{mask:url(#mask-2_1_);}
	.st3{opacity:0.1;fill:#FFFFFF;enable-background:new    ;}
	.st4{opacity:0.2;fill:#FFFFFF;enable-background:new    ;}
</style>
<g id="蒙版">
</g>
<defs>
	<filter id="Adobe_OpacityMaskFilter" filterUnits="userSpaceOnUse" x="-300" y="-353" width="1463.8" height="1024.2">
		<feColorMatrix  type="matrix" values="1 0 0 0 0  0 1 0 0 0  0 0 1 0 0  0 0 0 1 0"/>
	</filter>
</defs>
<mask maskUnits="userSpaceOnUse" x="-300" y="-353" width="1463.8" height="1024.2" id="mask-2_1_">
	<g class="st0">
		<rect id="path-1_1_" class="st1" width="750" height="280"/>
	</g>
</mask>
<g class="st2">
	<g transform="translate(-300.000000, -353.000000)">
		<path id="椭圆形" class="st3" d="M507.5,1024.2c280.6,0,507.5-229.6,507.5-512.1S788.1,0,507.5,0S0,229.6,0,512.1
			S226.9,1024.2,507.5,1024.2z M507.5,796.2C353.4,796.2,228,669.3,228,512.1S353.4,228,507.5,228S787,354.9,787,512.1
			S661.5,796.2,507.5,796.2z"/>
		<path id="椭圆形_1_" class="st3" d="M1092.6,997.8c205.2,0,371.1-167.9,371.1-374.6s-166-374.6-371.1-374.6
			S721.5,416.4,721.5,623.1S887.5,997.8,1092.6,997.8z M1092.6,856.8c-126.9,0-230.1-104.4-230.1-233.6s103.2-233.6,230.1-233.6
			s230.1,104.4,230.1,233.6S1219.6,856.8,1092.6,856.8z"/>
		<path id="椭圆形备份" class="st4" d="M308,913.5c96.5,0,174.5-78.7,174.5-175.5s-78-175.5-174.5-175.5S133.5,641.2,133.5,738
			S211.5,913.5,308,913.5z M308,772.5c-18.3,0-33.5-15.3-33.5-34.5s15.2-34.5,33.5-34.5s33.5,15.3,33.5,34.5S326.3,772.5,308,772.5z
			"/>
	</g>
</g>
</svg>
