<?xml version="1.0" encoding="utf-8"?>
<!-- Generator: Adobe Illustrator 22.0.1, SVG Export Plug-In . SVG Version: 6.00 Build 0)  -->
<svg version="1.1" id="图层_1" xmlns="http://www.w3.org/2000/svg" xmlns:xlink="http://www.w3.org/1999/xlink" x="0px" y="0px"
	 viewBox="0 0 100 100" style="enable-background:new 0 0 100 100;" xml:space="preserve">
<style type="text/css">
	.st0{fill:url(#Fill-1_1_);}
</style>
<linearGradient id="Fill-1_1_" gradientUnits="userSpaceOnUse" x1="-243.692" y1="466.6342" x2="-242.9403" y2="465.8491" gradientTransform="matrix(77.44 0 0 -88 18891.6797 41073.3008)">
	<stop  offset="0" style="stop-color:#2A97FF"/>
	<stop  offset="1" style="stop-color:#4285F4"/>
</linearGradient>
<path id="Fill-1" class="st0" d="M28.9,6C18.9,6,11,13.9,11,23.9l0,46.7c0,0.3,0.2,0.6,0.3,0.9c0.1,0.3,0.3,0.5,0.5,0.7l21.5,21.4
	c0,0,0,0,0.1,0c0.2,0.2,0.5,0.3,0.8,0.3h0c0.3,0,0.6-0.1,0.9-0.4c0.3-0.3,0.3-0.7,0.3-1c0-0.2,0-0.9,0-1.1l0-66
	c0-1.7,1.7-3.4,3.4-3.4l29.2,0c0.9,0,1.6,0.8,1.6,2.1l0,6.6c0,1.3-0.5,1.9-1.5,1.9l-19.9,0c-1,0-1.4,0.5-1.4,1.5l0,10.4
	c0,1.2,0.8,1.8,1.7,1.8l11.6,0c1.2,0,1.5,0.8,1.5,1.7l0,7.1c0,1.4-0.6,1.8-1.6,1.8l-11.5,0c-1.2,0-1.6,0.8-1.6,1.6l0,16.8
	c0,0.6,0.3,1.2,1.4,1.1l21.6,0c10,0,18.6-7.3,18.6-17.3l0-35c0-10-8.6-18.2-18.6-18.2l0,0L28.9,6z"/>
</svg>
