<?xml version="1.0" standalone="no"?><!DOCTYPE svg PUBLIC "-//W3C//DTD SVG 1.1//EN" "http://www.w3.org/Graphics/SVG/1.1/DTD/svg11.dtd"><svg t="1543847595590" class="icon" style="" viewBox="0 0 1024 1024" version="1.1" xmlns="http://www.w3.org/2000/svg" p-id="2996" xmlns:xlink="http://www.w3.org/1999/xlink" width="200" height="200"><defs><style type="text/css"></style></defs><path d="M512 1024C229.2 1024 0 794.8 0 512S229.2 0 512 0s512 229.2 512 512-229.2 512-512 512z m0-25c269 0 487-218 487-487S781 25 512 25 25 243 25 512s218 487 487 487z" fill="#EDEDED" p-id="2997"></path><path d="M972.1 287.1c3 6.2 0.5 13.7-5.7 16.7s-13.7 0.5-16.7-5.7C868.5 132.3 699.9 25 512 25c-6.9 0-12.5-5.6-12.5-12.5S505.1 0 512 0c197.5 0 374.8 112.9 460.1 287.1z" fill="#C7000B" p-id="2998"></path></svg>